<?xml version="1.0" encoding="UTF-8"?>
<svg id="Layer_1" data-name="Layer 1" xmlns="http://www.w3.org/2000/svg" viewBox="0 0 800 800">
  <defs>
    <style>
      .cls-1 {
        fill: #394240;
      }

      .cls-1, .cls-2, .cls-3 {
        stroke-width: 0px;
      }

      .cls-2 {
        fill: #45aab8;
      }

      .cls-3 {
        fill: #f9ebb2;
      }
    </style>
  </defs>
  <circle class="cls-1" cx="400" cy="400" r="12.5"/>
  <path class="cls-1" d="M462.5,400c0-.62-.01-1.24-.03-1.86v-.12c-.02-.61-.05-1.21-.09-1.81-.03-.63-.08-1.25-.14-1.87-1.64-18.02-11.06-33.71-24.74-44.06v-175.28c0-20.71-16.79-37.5-37.5-37.5s-37.5,16.79-37.5,37.5v175.28c-13.68,10.34-23.1,26.04-24.74,44.06-.06.62-.11,1.24-.14,1.87-.04.6-.07,1.2-.09,1.81v.12c-.02.62-.03,1.24-.03,1.86,0,7.55,1.34,14.79,3.79,21.49.35.96.73,1.9,1.12,2.84.4.93.82,1.86,1.25,2.77.44.91.9,1.81,1.38,2.69.24.44.49.88.74,1.32.75,1.31,1.55,2.59,2.39,3.84.29.41.57.83.86,1.24.59.82,1.18,1.61,1.8,2.4,3.09,3.93,6.65,7.49,10.58,10.58.79.62,1.58,1.21,2.4,1.8.41.29.83.57,1.24.86,1.25.84,2.53,1.64,3.84,2.39.44.25.88.5,1.32.74.88.48,1.78.94,2.69,1.38.91.43,1.84.85,2.77,1.25.94.39,1.88.77,2.84,1.12,6.7,2.45,13.94,3.79,21.49,3.79,2.94,0,5.76-.47,8.6-.86l.24.24c9.36-1.33,18.06-4.73,25.61-9.73l-.03-.03c7.03-4.65,13.04-10.67,17.69-17.69l.04.04c5-7.56,8.4-16.26,9.73-25.63l-.24-.24c.39-2.83.86-5.65.86-8.6ZM387.5,175c0-6.91,5.59-12.5,12.5-12.5s12.5,5.59,12.5,12.5v163.77c-.48-.1-.96-.19-1.44-.28-1.53-.28-3.09-.5-4.67-.66-2.1-.22-4.23-.33-6.39-.33s-4.29.11-6.39.33c-1.58.16-3.14.38-4.67.66-.48.09-.96.18-1.44.28v-163.77ZM400,437.5c-20.71,0-37.5-16.78-37.5-37.5s16.79-37.5,37.5-37.5,37.5,16.79,37.5,37.5-16.79,37.5-37.5,37.5Z"/>
  <path class="cls-3" d="M400,362.5c-20.71,0-37.5,16.79-37.5,37.5s16.79,37.5,37.5,37.5,37.5-16.79,37.5-37.5-16.79-37.5-37.5-37.5ZM400,412.5c-6.91,0-12.5-5.59-12.5-12.5s5.59-12.5,12.5-12.5,12.5,5.59,12.5,12.5-5.59,12.5-12.5,12.5Z"/>
  <path class="cls-2" d="M400,162.5c-6.91,0-12.5,5.59-12.5,12.5v163.76c4.04-.82,8.21-1.26,12.5-1.26s8.46.44,12.5,1.26v-163.76c0-6.91-5.59-12.5-12.5-12.5Z"/>
</svg>