<?xml version="1.0" encoding="UTF-8"?><svg id="_Шар_1" xmlns="http://www.w3.org/2000/svg" viewBox="0 0 239.97 276.49"><defs><style>.cls-1{fill:#3f3c3b;}.cls-1,.cls-2,.cls-3,.cls-4,.cls-5{stroke:#000;stroke-miterlimit:8;stroke-width:0px;}.cls-2{fill:#8a7d7b;}.cls-3{fill:#eeb6a5;}.cls-4{fill:#e0e0e0;}.cls-5{fill:#2f2d2d;}</style></defs><rect class="cls-4" width="240" height="276.49"/><path class="cls-5" d="M71.43,30.91H6.2c-2.03,0-3.67-1.66-3.67-3.72V10.12c0-2.05,1.64-3.72,3.67-3.72h65.22c2.03,0,3.67,1.66,3.67,3.72v17.05c0,2.05-1.64,3.74-3.67,3.74Z"/><path class="cls-5" d="M153.74,30.91h-67.46c-2.1,0-3.8-1.66-3.8-3.72h0V10.12c0-2.05,1.7-3.72,3.8-3.72h67.48c2.1,0,3.8,1.66,3.8,3.72v17.05c-.01,2.06-1.72,3.72-3.82,3.74Z"/><path class="cls-5" d="M236.2,30.91h-67.48c-2.1,0-3.8-1.66-3.8-3.72h0V10.12c0-2.05,1.7-3.72,3.8-3.72h67.48c2.1,0,3.8,1.66,3.8,3.72v17.05c0,2.05-1.7,3.74-3.8,3.74h0Z"/><path class="cls-5" d="M71.43,100.06H6.2c-2.03,0-3.67-1.66-3.67-3.72h0v-17.05c0-2.05,1.64-3.72,3.67-3.72h65.22c2.03,0,3.67,1.66,3.67,3.72v17.05c0,2.05-1.64,3.72-3.67,3.72h0Z"/><path class="cls-5" d="M153.74,100.06h-67.46c-2.1,0-3.8-1.66-3.8-3.72h0v-17.05c0-2.05,1.7-3.72,3.8-3.72h67.48c2.1,0,3.8,1.66,3.8,3.72v17.05c-.02,2.05-1.72,3.72-3.82,3.72Z"/><path class="cls-5" d="M233.35,100.06h-64.78c-2.01,0-3.65-1.66-3.65-3.72h0v-17.05c0-2.05,1.63-3.72,3.65-3.72h64.78c2.02,0,3.65,1.66,3.65,3.72v17.05c0,2.05-1.63,3.72-3.65,3.72h0Z"/><path class="cls-5" d="M71.43,169.24H6.2c-2.03,0-3.67-1.66-3.67-3.72h0v-17.05c0-2.05,1.64-3.72,3.67-3.72h65.22c2.03,0,3.67,1.66,3.67,3.72v17.05c0,2.03-1.64,3.72-3.67,3.72Z"/><path class="cls-5" d="M153.74,169.24h-67.46c-2.1,0-3.8-1.66-3.8-3.72h0v-17.05c0-2.05,1.7-3.72,3.8-3.72h67.48c2.1,0,3.8,1.66,3.8,3.72v17.05c-.02,2.05-1.72,3.71-3.82,3.72Z"/><path class="cls-5" d="M233.35,169.24h-64.78c-2.01,0-3.65-1.66-3.65-3.72h0v-17.05c0-2.05,1.63-3.72,3.65-3.72h64.78c2.02,0,3.65,1.66,3.65,3.72v17.05c0,2.03-1.63,3.72-3.65,3.72h0Z"/><path class="cls-5" d="M73.07,238.39H6.29c-2.08,0-3.76-1.66-3.76-3.72h0v-17.05c0-2.05,1.68-3.72,3.76-3.72h66.77c2.08,0,3.76,1.66,3.76,3.72v17.05c0,2.05-1.68,3.72-3.76,3.72h0Z"/><path class="cls-5" d="M154.64,238.39h-66.75c-2.08,0-3.76-1.66-3.76-3.72h0v-17.05c0-2.05,1.68-3.72,3.76-3.72h66.77c2.08,0,3.76,1.66,3.76,3.72v17.05c-.02,2.05-1.7,3.72-3.78,3.72Z"/><path class="cls-5" d="M236.24,238.39h-66.77c-2.08,0-3.76-1.66-3.76-3.72h0v-17.05c0-2.05,1.68-3.72,3.76-3.72h66.77c2.08,0,3.76,1.66,3.76,3.72v17.05c0,2.05-1.68,3.72-3.76,3.72h0Z"/><path class="cls-5" d="M31.04,40.98H0v24.5h31.04c2.1,0,3.8-1.66,3.8-3.72h0v-17.05c0-2.07-1.7-3.74-3.8-3.74Z"/><path class="cls-5" d="M112.84,65.49H45.38c-2.1,0-3.8-1.66-3.8-3.72h0v-17.05c0-2.05,1.7-3.72,3.8-3.72h67.48c2.1,0,3.8,1.66,3.8,3.72v17.05c-.02,2.05-1.72,3.72-3.82,3.72Z"/><path class="cls-5" d="M194.64,65.49h-67.46c-2.1,0-3.8-1.66-3.8-3.72h0v-17.05c0-2.05,1.7-3.72,3.8-3.72h67.48c2.1,0,3.8,1.66,3.8,3.72v17.05c-.02,2.05-1.72,3.72-3.82,3.72Z"/><path class="cls-5" d="M208.98,40.98c-2.1,0-3.8,1.66-3.8,3.72h0v17.05c0,2.05,1.7,3.72,3.8,3.72h31.02v-24.49h-31.02Z"/><path class="cls-5" d="M31.04,110.15H0v24.5h31.04c2.1,0,3.8-1.66,3.8-3.72h0v-17.05c0-2.07-1.7-3.74-3.8-3.74Z"/><path class="cls-5" d="M112.84,134.64H45.38c-2.1,0-3.8-1.66-3.8-3.72h0v-17.05c0-2.05,1.7-3.72,3.8-3.72h67.48c2.1,0,3.8,1.66,3.8,3.72v17.05c-.02,2.05-1.72,3.72-3.82,3.72Z"/><path class="cls-5" d="M194.64,134.64h-67.46c-2.1,0-3.8-1.66-3.8-3.72h0v-17.05c0-2.05,1.7-3.72,3.8-3.72h67.48c2.1,0,3.8,1.66,3.8,3.72v17.05c-.02,2.05-1.72,3.72-3.82,3.72Z"/><path class="cls-5" d="M208.98,110.15c-2.1,0-3.8,1.66-3.8,3.72h0v17.05c0,2.05,1.7,3.72,3.8,3.72h31.02v-24.49h-31.02Z"/><path class="cls-5" d="M31.04,179.31H0v24.5h31.04c2.1,0,3.8-1.66,3.8-3.72h0v-17.05c0-2.07-1.7-3.74-3.8-3.74h0Z"/><path class="cls-5" d="M112.84,203.81H45.38c-2.1,0-3.8-1.66-3.8-3.72h0v-17.05c0-2.05,1.7-3.72,3.8-3.72h67.48c2.1,0,3.8,1.66,3.8,3.72v17.05c-.02,2.05-1.72,3.72-3.82,3.72Z"/><path class="cls-5" d="M194.64,203.81h-67.46c-2.1,0-3.8-1.66-3.8-3.72h0v-17.05c0-2.05,1.7-3.72,3.8-3.72h67.48c2.1,0,3.8,1.66,3.8,3.72v17.05c-.02,2.05-1.72,3.72-3.82,3.72Z"/><path class="cls-5" d="M208.98,179.31c-2.1,0-3.8,1.66-3.8,3.72h0v17.05c0,2.05,1.7,3.72,3.8,3.72h31.02v-24.49h-31.02Z"/><path class="cls-2" d="M71.43,28.21H6.2c-2.03,0-3.67-1.66-3.67-3.72V7.42c0-2.05,1.64-3.72,3.67-3.72h65.22c2.03,0,3.67,1.66,3.67,3.72v17.05c0,2.05-1.64,3.74-3.67,3.74Z"/><path class="cls-1" d="M153.74,28.21h-67.46c-2.1,0-3.8-1.66-3.8-3.72h0V7.42c0-2.05,1.7-3.72,3.8-3.72h67.48c2.1,0,3.8,1.66,3.8,3.72v17.05c-.01,2.06-1.72,3.72-3.82,3.74Z"/><path class="cls-2" d="M236.2,28.21h-67.48c-2.1,0-3.8-1.66-3.8-3.72h0V7.42c0-2.05,1.7-3.72,3.8-3.72h67.48c2.1,0,3.8,1.66,3.8,3.72v17.05c0,2.05-1.7,3.74-3.8,3.74h0Z"/><path class="cls-2" d="M71.43,97.36H6.2c-2.03,0-3.67-1.66-3.67-3.72h0v-17.05c0-2.05,1.64-3.72,3.67-3.72h65.22c2.03,0,3.67,1.66,3.67,3.72v17.05c0,2.05-1.64,3.72-3.67,3.72h0Z"/><path class="cls-2" d="M153.74,97.36h-67.46c-2.1,0-3.8-1.66-3.8-3.72h0v-17.05c0-2.05,1.7-3.72,3.8-3.72h67.48c2.1,0,3.8,1.66,3.8,3.72v17.05c-.02,2.05-1.72,3.72-3.82,3.72Z"/><path class="cls-1" d="M233.35,97.36h-64.78c-2.01,0-3.65-1.66-3.65-3.72h0v-17.05c0-2.05,1.63-3.72,3.65-3.72h64.78c2.02,0,3.65,1.66,3.65,3.72v17.05c0,2.05-1.63,3.72-3.65,3.72h0Z"/><path class="cls-2" d="M71.43,166.54H6.2c-2.03,0-3.67-1.66-3.67-3.72h0v-17.05c0-2.05,1.64-3.72,3.67-3.72h65.22c2.03,0,3.67,1.66,3.67,3.72v17.05c0,2.03-1.64,3.72-3.67,3.72Z"/><path class="cls-1" d="M153.74,166.54h-67.46c-2.1,0-3.8-1.66-3.8-3.72h0v-17.05c0-2.05,1.7-3.72,3.8-3.72h67.48c2.1,0,3.8,1.66,3.8,3.72v17.05c-.02,2.05-1.72,3.71-3.82,3.72Z"/><path class="cls-2" d="M233.35,166.54h-64.78c-2.01,0-3.65-1.66-3.65-3.72h0v-17.05c0-2.05,1.63-3.72,3.65-3.72h64.78c2.02,0,3.65,1.66,3.65,3.72v17.05c0,2.03-1.63,3.72-3.65,3.72h0Z"/><path class="cls-2" d="M73.07,235.69H6.29c-2.08,0-3.76-1.66-3.76-3.72h0v-17.05c0-2.05,1.68-3.72,3.76-3.72h66.77c2.08,0,3.76,1.66,3.76,3.72v17.05c0,2.05-1.68,3.72-3.76,3.72h0Z"/><path class="cls-2" d="M154.64,235.69h-66.75c-2.08,0-3.76-1.66-3.76-3.72h0v-17.05c0-2.05,1.68-3.72,3.76-3.72h66.77c2.08,0,3.76,1.66,3.76,3.72v17.05c-.02,2.05-1.7,3.72-3.78,3.72Z"/><path class="cls-1" d="M236.24,235.69h-66.77c-2.08,0-3.76-1.66-3.76-3.72h0v-17.05c0-2.05,1.68-3.72,3.76-3.72h66.77c2.08,0,3.76,1.66,3.76,3.72v17.05c0,2.05-1.68,3.72-3.76,3.72h0Z"/><path class="cls-1" d="M31.04,38.28H0v24.5h31.04c2.1,0,3.8-1.66,3.8-3.72h0v-17.05c0-2.07-1.7-3.74-3.8-3.74Z"/><path class="cls-2" d="M112.84,62.79H45.38c-2.1,0-3.8-1.66-3.8-3.72h0v-17.05c0-2.05,1.7-3.72,3.8-3.72h67.48c2.1,0,3.8,1.66,3.8,3.72v17.05c-.02,2.05-1.72,3.72-3.82,3.72Z"/><path class="cls-3" d="M194.64,62.79h-67.46c-2.1,0-3.8-1.66-3.8-3.72h0v-17.05c0-2.05,1.7-3.72,3.8-3.72h67.48c2.1,0,3.8,1.66,3.8,3.72v17.05c-.02,2.05-1.72,3.72-3.82,3.72Z"/><path class="cls-1" d="M208.98,38.28c-2.1,0-3.8,1.66-3.8,3.72h0v17.05c0,2.05,1.7,3.72,3.8,3.72h31.02v-24.49h-31.02Z"/><path class="cls-2" d="M31.04,107.46H0v24.5h31.04c2.1,0,3.8-1.66,3.8-3.72h0v-17.05c0-2.07-1.7-3.74-3.8-3.74Z"/><path class="cls-3" d="M112.84,131.94H45.38c-2.1,0-3.8-1.66-3.8-3.72h0v-17.05c0-2.05,1.7-3.72,3.8-3.72h67.48c2.1,0,3.8,1.66,3.8,3.72v17.05c-.02,2.05-1.72,3.72-3.82,3.72Z"/><path class="cls-2" d="M194.64,131.94h-67.46c-2.1,0-3.8-1.66-3.8-3.72h0v-17.05c0-2.05,1.7-3.72,3.8-3.72h67.48c2.1,0,3.8,1.66,3.8,3.72v17.05c-.02,2.05-1.72,3.72-3.82,3.72Z"/><path class="cls-2" d="M208.98,107.46c-2.1,0-3.8,1.66-3.8,3.72h0v17.05c0,2.05,1.7,3.72,3.8,3.72h31.02v-24.49h-31.02Z"/><path class="cls-3" d="M31.04,176.61H0v24.5h31.04c2.1,0,3.8-1.66,3.8-3.72h0v-17.05c0-2.07-1.7-3.74-3.8-3.74h0Z"/><path class="cls-2" d="M112.84,201.11H45.38c-2.1,0-3.8-1.66-3.8-3.72h0v-17.05c0-2.05,1.7-3.72,3.8-3.72h67.48c2.1,0,3.8,1.66,3.8,3.72v17.05c-.02,2.05-1.72,3.72-3.82,3.72Z"/><path class="cls-2" d="M194.64,201.11h-67.46c-2.1,0-3.8-1.66-3.8-3.72h0v-17.05c0-2.05,1.7-3.72,3.8-3.72h67.48c2.1,0,3.8,1.66,3.8,3.72v17.05c-.02,2.05-1.72,3.72-3.82,3.72Z"/><path class="cls-3" d="M208.98,176.61c-2.1,0-3.8,1.66-3.8,3.72h0v17.05c0,2.05,1.7,3.72,3.8,3.72h31.02v-24.49h-31.02Z"/><path class="cls-5" d="M31.04,248.35H0v24.5h31.04c2.1,0,3.8-1.66,3.8-3.72h0v-17.05c0-2.07-1.7-3.74-3.8-3.74h0Z"/><path class="cls-5" d="M112.84,272.85H45.38c-2.1,0-3.8-1.66-3.8-3.72h0v-17.05c0-2.05,1.7-3.72,3.8-3.72h67.48c2.1,0,3.8,1.66,3.8,3.72v17.05c-.02,2.05-1.72,3.72-3.82,3.72Z"/><path class="cls-5" d="M194.64,272.85h-67.46c-2.1,0-3.8-1.66-3.8-3.72h0v-17.05c0-2.05,1.7-3.72,3.8-3.72h67.48c2.1,0,3.8,1.66,3.8,3.72v17.05c-.02,2.05-1.72,3.72-3.82,3.72Z"/><path class="cls-5" d="M208.98,248.35c-2.1,0-3.8,1.66-3.8,3.72h0v17.05c0,2.05,1.7,3.72,3.8,3.72h31.02v-24.49h-31.02Z"/><path class="cls-3" d="M31.04,245.65H0v24.5h31.04c2.1,0,3.8-1.66,3.8-3.72h0v-17.05c0-2.07-1.7-3.74-3.8-3.74h0Z"/><path class="cls-2" d="M112.84,270.15H45.38c-2.1,0-3.8-1.66-3.8-3.72h0v-17.05c0-2.05,1.7-3.72,3.8-3.72h67.48c2.1,0,3.8,1.66,3.8,3.72v17.05c-.02,2.05-1.72,3.72-3.82,3.72Z"/><path class="cls-2" d="M194.64,270.15h-67.46c-2.1,0-3.8-1.66-3.8-3.72h0v-17.05c0-2.05,1.7-3.72,3.8-3.72h67.48c2.1,0,3.8,1.66,3.8,3.72v17.05c-.02,2.05-1.72,3.72-3.82,3.72Z"/><path class="cls-3" d="M208.98,245.65c-2.1,0-3.8,1.66-3.8,3.72h0v17.05c0,2.05,1.7,3.72,3.8,3.72h31.02v-24.49h-31.02Z"/></svg>