<?xml version="1.0" encoding="UTF-8"?><svg id="_Шар_1" xmlns="http://www.w3.org/2000/svg" viewBox="0 0 800 800"><defs><style>.cls-1{fill:#ff5252;}.cls-1,.cls-2,.cls-3,.cls-4,.cls-5,.cls-6{stroke-width:0px;}.cls-2{fill:#9ccc65;}.cls-3{fill:#bdbdbd;}.cls-4{fill:#e0e0e0;}.cls-5{fill:#616161;}.cls-6{fill:#424242;}</style></defs><path class="cls-5" d="M666.67,266.67H133.33v400c0,36.67,30,66.67,66.67,66.67h400c36.67,0,66.67-30,66.67-66.67v-400Z"/><path class="cls-6" d="M600,66.67H200c-36.67,0-66.67,30-66.67,66.67v150h533.33v-150c0-36.67-30-66.67-66.67-66.67h0Z"/><path class="cls-2" d="M600,233.33H200c-10,0-16.67-6.67-16.67-16.67v-83.33c0-10,6.67-16.67,16.67-16.67h400c10,0,16.67,6.67,16.67,16.67v83.33c0,10-6.67,16.67-16.67,16.67h0Z"/><path class="cls-1" d="M600,383.33h-50c-10,0-16.67-6.67-16.67-16.67v-33.33c0-10,6.67-16.67,16.67-16.67h50c10,0,16.67,6.67,16.67,16.67v33.33c0,10-6.67,16.67-16.67,16.67Z"/><path class="cls-4" d="M250,383.33h-50c-10,0-16.67-6.67-16.67-16.67v-33.33c0-10,6.67-16.67,16.67-16.67h50c10,0,16.67,6.67,16.67,16.67v33.33c0,10-6.67,16.67-16.67,16.67ZM366.67,383.33h-50c-10,0-16.67-6.67-16.67-16.67v-33.33c0-10,6.67-16.67,16.67-16.67h50c10,0,16.67,6.67,16.67,16.67v33.33c0,10-6.67,16.67-16.67,16.67ZM483.33,383.33h-50c-10,0-16.67-6.67-16.67-16.67v-33.33c0-10,6.67-16.67,16.67-16.67h50c10,0,16.67,6.67,16.67,16.67v33.33c0,10-6.67,16.67-16.67,16.67ZM250,483.33h-50c-10,0-16.67-6.67-16.67-16.67v-33.33c0-10,6.67-16.67,16.67-16.67h50c10,0,16.67,6.67,16.67,16.67v33.33c0,10-6.67,16.67-16.67,16.67ZM366.67,483.33h-50c-10,0-16.67-6.67-16.67-16.67v-33.33c0-10,6.67-16.67,16.67-16.67h50c10,0,16.67,6.67,16.67,16.67v33.33c0,10-6.67,16.67-16.67,16.67ZM483.33,483.33h-50c-10,0-16.67-6.67-16.67-16.67v-33.33c0-10,6.67-16.67,16.67-16.67h50c10,0,16.67,6.67,16.67,16.67v33.33c0,10-6.67,16.67-16.67,16.67ZM250,583.33h-50c-10,0-16.67-6.67-16.67-16.67v-33.33c0-10,6.67-16.67,16.67-16.67h50c10,0,16.67,6.67,16.67,16.67v33.33c0,10-6.67,16.67-16.67,16.67ZM366.67,583.33h-50c-10,0-16.67-6.67-16.67-16.67v-33.33c0-10,6.67-16.67,16.67-16.67h50c10,0,16.67,6.67,16.67,16.67v33.33c0,10-6.67,16.67-16.67,16.67ZM483.33,583.33h-50c-10,0-16.67-6.67-16.67-16.67v-33.33c0-10,6.67-16.67,16.67-16.67h50c10,0,16.67,6.67,16.67,16.67v33.33c0,10-6.67,16.67-16.67,16.67ZM250,683.33h-50c-10,0-16.67-6.67-16.67-16.67v-33.33c0-10,6.67-16.67,16.67-16.67h50c10,0,16.67,6.67,16.67,16.67v33.33c0,10-6.67,16.67-16.67,16.67ZM366.67,683.33h-50c-10,0-16.67-6.67-16.67-16.67v-33.33c0-10,6.67-16.67,16.67-16.67h50c10,0,16.67,6.67,16.67,16.67v33.33c0,10-6.67,16.67-16.67,16.67ZM483.33,683.33h-50c-10,0-16.67-6.67-16.67-16.67v-33.33c0-10,6.67-16.67,16.67-16.67h50c10,0,16.67,6.67,16.67,16.67v33.33c0,10-6.67,16.67-16.67,16.67Z"/><path class="cls-3" d="M600,483.33h-50c-10,0-16.67-6.67-16.67-16.67v-33.33c0-10,6.67-16.67,16.67-16.67h50c10,0,16.67,6.67,16.67,16.67v33.33c0,10-6.67,16.67-16.67,16.67ZM600,583.33h-50c-10,0-16.67-6.67-16.67-16.67v-33.33c0-10,6.67-16.67,16.67-16.67h50c10,0,16.67,6.67,16.67,16.67v33.33c0,10-6.67,16.67-16.67,16.67ZM600,683.33h-50c-10,0-16.67-6.67-16.67-16.67v-33.33c0-10,6.67-16.67,16.67-16.67h50c10,0,16.67,6.67,16.67,16.67v33.33c0,10-6.67,16.67-16.67,16.67Z"/></svg>