<?xml version="1.0" encoding="UTF-8"?><svg id="_Шар_1" xmlns="http://www.w3.org/2000/svg" viewBox="0 0 533.34 770.74"><defs><style>.cls-1{fill:#ff5252;}.cls-1,.cls-2,.cls-3,.cls-4,.cls-5,.cls-6{stroke-width:0px;}.cls-2{fill:#9ccc65;}.cls-3{fill:#bdbdbd;}.cls-4{fill:#e0e0e0;}.cls-5{fill:#616161;}.cls-6{fill:#424242;}.cls-7{fill:#000;font-family:Gilroy-SemiBold, Gilroy;font-size:39.58px;font-weight:600;}</style></defs><path class="cls-5" d="M533.34,200H0v489.2C0,734.05,30,770.74,66.67,770.74h400c36.67,0,66.67-36.69,66.67-81.54V200h0Z"/><path class="cls-6" d="M466.67,0H66.67C30,0,0,30,0,66.67v150h533.33V66.67c0-36.67-30-66.67-66.67-66.67h0Z"/><path class="cls-2" d="M466.67,166.66H66.67c-10,0-16.67-6.67-16.67-16.67v-83.33c0-10,6.67-16.67,16.67-16.67h400c10,0,16.67,6.67,16.67,16.67v83.33c0,10-6.67,16.67-16.67,16.67h0Z"/><path class="cls-1" d="M466.67,316.66h-50c-10,0-16.67-6.67-16.67-16.67v-33.33c0-10,6.67-16.67,16.67-16.67h50c10,0,16.67,6.67,16.67,16.67v33.33c0,10-6.67,16.67-16.67,16.67Z"/><path class="cls-4" d="M350,549.99h-50c-10,0-16.67,6.67-16.67,16.67v33.33c0,10,6.67,16.67,16.67,16.67h50c10,0,16.67-6.67,16.67-16.67v-33.33c0-10-6.67-16.67-16.67-16.67Z"/><rect class="cls-4" x="50" y="549.99" width="83.34" height="66.67" rx="16.67" ry="16.67"/><rect class="cls-4" x="166.67" y="549.99" width="83.34" height="66.67" rx="16.67" ry="16.67"/><rect class="cls-4" x="283.33" y="449.99" width="83.34" height="66.67" rx="16.67" ry="16.67"/><rect class="cls-4" x="166.67" y="449.99" width="83.34" height="66.67" rx="16.67" ry="16.67"/><rect class="cls-4" x="50" y="449.99" width="83.34" height="66.67" rx="16.67" ry="16.67"/><rect class="cls-4" x="50" y="349.99" width="83.34" height="66.67" rx="16.67" ry="16.67"/><rect class="cls-4" x="166.67" y="349.99" width="83.34" height="66.67" rx="16.67" ry="16.67"/><rect class="cls-4" x="283.33" y="349.99" width="83.34" height="66.67" rx="16.67" ry="16.67"/><rect class="cls-3" x="283.33" y="249.99" width="83.34" height="66.67" rx="16.67" ry="16.67"/><rect class="cls-3" x="166.67" y="249.99" width="83.34" height="66.67" rx="16.67" ry="16.67"/><rect class="cls-3" x="50" y="249.99" width="83.34" height="66.67" rx="16.67" ry="16.67"/><path class="cls-3" d="M466.67,416.66h-50c-10,0-16.67-6.67-16.67-16.67v-33.33c0-10,6.67-16.67,16.67-16.67h50c10,0,16.67,6.67,16.67,16.67v33.33c0,10-6.67,16.67-16.67,16.67ZM466.67,516.66h-50c-10,0-16.67-6.67-16.67-16.67v-33.33c0-10,6.67-16.67,16.67-16.67h50c10,0,16.67,6.67,16.67,16.67v33.33c0,10-6.67,16.67-16.67,16.67ZM466.67,616.66h-50c-10,0-16.67-6.67-16.67-16.67v-33.33c0-10,6.67-16.67,16.67-16.67h50c10,0,16.67,6.67,16.67,16.67v33.33c0,10-6.67,16.67-16.67,16.67Z"/><rect class="cls-3" x="400" y="650.05" width="83.34" height="66.67" rx="16.67" ry="16.67"/><path class="cls-4" d="M116.67,716.72h-50c-10,0-16.67-6.67-16.67-16.67v-33.33c0-10,6.67-16.67,16.67-16.67h50c10,0,16.67,6.67,16.67,16.67v33.33c0,10-6.67,16.67-16.67,16.67h0Z"/><rect class="cls-4" x="166.67" y="650.05" width="83.34" height="66.67" rx="16.67" ry="16.67"/><rect class="cls-4" x="283.33" y="650.05" width="83.34" height="66.67" rx="16.67" ry="16.67"/><text class="cls-7" transform="translate(76.43 295.76)"><tspan x="0" y="0">←</tspan></text><text class="cls-7" transform="translate(198.94 295.03)"><tspan x="0" y="0">^</tspan></text><text class="cls-7" transform="translate(314.53 296.76)"><tspan x="0" y="0">/</tspan></text><text class="cls-7" transform="translate(431.41 392.2)"><tspan x="0" y="0">*</tspan><tspan x="0" y="102">+</tspan><tspan x="0" y="204">-</tspan><tspan x="0" y="306">=</tspan></text><text class="cls-7" transform="translate(78.41 392.2)"><tspan x="0" y="0">7</tspan><tspan x="0" y="102">4</tspan><tspan x="0" y="204">1</tspan><tspan x="0" y="306">0</tspan></text><text class="cls-7" transform="translate(197.39 392.27)"><tspan x="0" y="0">8</tspan><tspan x=".32" y="102">5</tspan><tspan x=".63" y="204">2</tspan><tspan x="-13.83" y="306">00</tspan></text><text class="cls-7" transform="translate(314.74 392.27)"><tspan x="0" y="0">9</tspan><tspan x="0" y="102">6</tspan><tspan x=".1" y="204">3</tspan><tspan x="5.74" y="306">.</tspan></text><text class="cls-7" transform="translate(427.14 295.03)"><tspan x="0" y="0">C</tspan></text></svg>