<?xml version="1.0" encoding="UTF-8"?>
<svg id="Layer_1" data-name="Layer 1" xmlns="http://www.w3.org/2000/svg" viewBox="0 0 800 800">
  <defs>
    <style>
      .cls-1 {
        fill: #394240;
      }

      .cls-1, .cls-2, .cls-3 {
        stroke-width: 0px;
      }

      .cls-2 {
        fill: #f76d57;
      }

      .cls-3 {
        fill: #f9ebb2;
      }
    </style>
  </defs>
  <circle class="cls-2" cx="400" cy="400" r="325"/>
  <path class="cls-1" d="M400,0C179.09,0,0,179.09,0,400s179.09,400,400,400,400-179.09,400-400S620.91,0,400,0ZM400,775c-207.11,0-375-167.9-375-375S192.89,25,400,25s375,167.89,375,375-167.89,375-375,375Z"/>
  <path class="cls-1" d="M400,50c-193.3,0-350,156.7-350,350s156.7,350,350,350,350-156.7,350-350S593.3,50,400,50ZM638.44,620.75l-26.29-26.3c-4.91-4.87-12.81-4.87-17.69,0-4.89,4.9-4.89,12.79,0,17.69l26.3,26.3c-55.11,51.06-127.94,83.21-208.25,86.25v-37.17c-.01-6.91-5.6-12.5-12.49-12.5-6.93.01-12.5,5.59-12.5,12.5v37.17c-80.32-3.04-153.15-35.17-208.26-86.22l26.3-26.3c4.87-4.9,4.87-12.8,0-17.68-4.91-4.89-12.79-4.89-17.67,0l-26.3,26.3c-51.05-55.11-83.2-127.94-86.25-208.25h37.17c6.91-.01,12.5-5.6,12.5-12.5-.01-6.93-5.59-12.5-12.5-12.5h-37.2c3.04-80.31,35.17-153.15,86.23-208.26l26.3,26.3c4.89,4.89,12.79,4.89,17.67,0,4.89-4.9,4.89-12.79,0-17.67l-26.3-26.3c55.11-51.06,127.95-83.21,208.26-86.25v37.15c0,6.91,5.59,12.5,12.5,12.5s12.5-5.59,12.5-12.5v-37.19c80.31,3.04,153.15,35.17,208.26,86.24l-26.3,26.3c-4.89,4.89-4.89,12.79,0,17.67s12.79,4.89,17.68,0l26.31-26.3c51.05,55.11,83.2,127.95,86.24,208.26h-37.16c-6.91,0-12.5,5.59-12.5,12.5s5.59,12.5,12.5,12.5h37.19c-3.05,80.32-35.19,153.15-86.25,208.26Z"/>
  <path class="cls-3" d="M400,25C192.9,25,25,192.9,25,400s167.9,375,375,375,375-167.9,375-375S607.1,25,400,25ZM400,750c-193.3,0-350-156.7-350-350S206.7,50,400,50s350,156.7,350,350-156.7,350-350,350Z"/>
</svg>