<?xml version="1.0" encoding="UTF-8"?>
<svg id="_2" data-name="2" xmlns="http://www.w3.org/2000/svg" viewBox="0 0 800 800">
  <defs>
    <style>
      .cls-1 {
        fill: #000;
        stroke-width: 0px;
      }

      .cls-2 {
        stroke: #fff;
        stroke-width: 8px;
      }

      .cls-2, .cls-3 {
        fill: none;
        stroke-miterlimit: 10;
      }

      .cls-3 {
        stroke: #000;
        stroke-width: 30px;
      }
    </style>
  </defs>
  <path class="cls-1" d="M543.1,477.48c-63.1-56.28-56.59-93.3-57.83-116.22-1.59-29.44,30.23-179.03-112.99-173.46-4.37,5.69-8.79,25.91-8.4,36.65,53.75-1.64,63.26,44.76,63.26,88.92s-21.44,73.35-21.44,73.35c-1.01,2.98-2.61,2.18-.86,4.8,0,0,3.09,3.72,6.86,7.76,4.11,17.9,19.21,40.76,54.86,44.73,25.59,2.85,28.16,5.69,40,11.81,3.2,2.91,5.54,5.78,6.69,8.53-26.26-1.19-70.6,33.42-70.6,33.42,0,0-43.85,8.51-84.26,6.98,3.22-4.62,6.94-8.63,11.13-11.41,1.92-1.28,2.43-3.88,1.16-5.79-1.28-1.92-3.87-2.44-5.79-1.17-6.02,4.03-10.82,9.62-14.73,15.65-.46.71-.88,1.43-1.32,2.15-23.53-1.93-44.51-7.93-52.99-21.93-12.44-20.51,65.64-57.29,65.64-57.29v-37s-14.68.34-33.77-20.34c-28.07-30.41-21.22-100.09-9.19-119.31,17.95-28.68,37-20.29,36.6-25.06-1.32-15.9,7.33-35.52,7.33-35.52-5.76.27-18.96,2.55-32.69,8.25-14.77,6.14-38.64,22.05-50.58,85.7-11,58.66,11.89,128.95-2.43,145.66-14.33,16.71-19.1,29.84-19.1,40.58,0,20.6-3.97,40.28-6.36,42.68-2.39,2.38-26.85,39.44-26.85,101.74h349.09s13.73-95.49-30.43-134.87Z"/>
  <rect class="cls-3" x="177.47" y="152.55" width="445.06" height="459.8"/>
  <rect class="cls-2" x="175.51" y="150.53" width="448.98" height="463.84"/>
</svg>