<?xml version="1.0" encoding="UTF-8"?><svg id="sign-open" xmlns="http://www.w3.org/2000/svg" viewBox="0 0 256 256"><defs><style>.cls-1{font-family:FranklinGothic-Heavy, 'Franklin Gothic Heavy';font-size:40.09px;font-weight:800;}.cls-1,.cls-2{fill:#576065;}.cls-2,.cls-3,.cls-4{stroke-width:0px;}.cls-3{fill:#94d5d2;}.cls-4{fill:#ffeb97;}</style></defs><path class="cls-4" d="M246.04,228.65c-.11,11.09-9.15,20-20.24,19.94H30.19c-11.08.05-20.12-8.86-20.24-19.94v-78.14c.11-11.09,9.15-20.01,20.24-19.97h195.61c11.09-.05,20.13,8.88,20.24,19.97v78.14Z"/><circle class="cls-3" cx="128" cy="20.98" r="13.98"/><g id="outline"><rect class="cls-2" x="23.08" y="76.35" width="119.33" height="10.06" transform="translate(-31.7 100.69) rotate(-54.1)"/><rect class="cls-2" x="168.18" y="21.65" width="10.06" height="118.54" transform="translate(-14.39 117.72) rotate(-36.14)"/><path class="cls-2" d="M225.81,253.65H30.19c-13.88.06-25.18-11.12-25.27-25v-78.14c.09-13.88,11.4-25.06,25.27-25h195.61c13.88-.06,25.18,11.12,25.27,25v78.14c-.09,13.88-11.4,25.06-25.27,25ZM30.19,135.58c-8.32-.08-15.13,6.61-15.21,14.93,0,0,0,0,0,0v78.14c.09,8.31,6.89,14.98,15.21,14.91h195.61c8.31.08,15.12-6.59,15.21-14.91v-78.14c-.08-8.32-6.88-15.01-15.21-14.93,0,0,0,0,0,0H30.19Z"/><path class="cls-2" d="M128,40.48c-10.5-.08-18.95-8.65-18.87-19.15.08-10.5,8.65-18.95,19.15-18.87,10.39.08,18.8,8.48,18.87,18.87,0,10.57-8.57,19.15-19.15,19.15ZM128,12.42c-4.94,0-8.94,4-8.94,8.94,0,4.94,4,8.94,8.94,8.94,4.94,0,8.94-4,8.94-8.94,0,0,0-.02,0-.03-.02-4.93-4.01-8.92-8.94-8.92Z"/><rect class="cls-2" x="29.62" y="145.53" width="8.75" height="10.06"/><rect class="cls-2" x="29.62" y="224.25" width="8.75" height="10.06"/><rect class="cls-2" x="217.63" y="145.53" width="8.75" height="10.06"/><rect class="cls-2" x="217.63" y="224.25" width="8.75" height="10.06"/></g><text class="cls-1" transform="translate(45.81 188.17)"><tspan x="0" y="0">COMING </tspan><tspan x="28.57" y="35">SOON</tspan></text></svg>