<?xml version="1.0" encoding="UTF-8"?>
<svg id="Layer_1" data-name="Layer 1" xmlns="http://www.w3.org/2000/svg" viewBox="0 0 1330.32 643.48">
  <defs>
    <style>
      .cls-1 {
        fill: #ee8700;
      }

      .cls-1, .cls-2, .cls-3, .cls-4, .cls-5 {
        stroke-width: 0px;
      }

      .cls-2 {
        fill: #cc7400;
      }

      .cls-3 {
        fill: #ffa733;
      }

      .cls-4 {
        fill: #aa6100;
      }

      .cls-5 {
        fill: #ffa630;
      }
    </style>
  </defs>
  <path class="cls-3" d="M1304.23,278.26H26.09c-8.9,0-17.18-4.53-21.98-12.02-4.79-7.5-5.43-16.92-1.71-24.99L106.75,15.16c4.26-9.24,13.51-15.16,23.68-15.16h1069.45c10.17,0,19.42,5.92,23.68,15.16l104.35,226.09c3.73,8.08,3.08,17.49-1.71,24.99-4.8,7.49-13.08,12.02-21.98,12.02Z"/>
  <path class="cls-2" d="M1242.05,643.48h-104.35c-14.41,0-26.09-11.68-26.09-26.09v-260.87c0-14.41,11.68-26.09,26.09-26.09h104.35c14.41,0,26.09,11.68,26.09,26.09v260.87c0,14.41-11.68,26.09-26.09,26.09Z"/>
  <path class="cls-4" d="M1242.05,330.43h-52.17v313.04h52.17c14.41,0,26.09-11.68,26.09-26.09v-260.87c0-14.41-11.68-26.09-26.09-26.09Z"/>
  <path class="cls-2" d="M182.61,643.48h-104.35c-14.41,0-26.09-11.68-26.09-26.09v-260.87c0-14.41,11.68-26.09,26.09-26.09h104.35c14.41,0,26.09,11.68,26.09,26.09v260.87c0,14.41-11.68,26.09-26.09,26.09Z"/>
  <path class="cls-4" d="M182.61,330.43h-52.18v313.04h52.17c14.41,0,26.09-11.68,26.09-26.09v-260.87c0-14.41-11.68-26.09-26.09-26.09Z"/>
  <path class="cls-5" d="M1304.23,382.61H26.09c-14.41,0-26.09-11.69-26.09-26.09v-104.35c0-14.41,11.68-26.09,26.09-26.09h1278.14c14.41,0,26.09,11.68,26.09,26.09v104.35c0,14.4-11.68,26.09-26.09,26.09Z"/>
  <path class="cls-1" d="M1304.23,226.09h-664.09v156.52h664.09c14.41,0,26.09-11.69,26.09-26.09v-104.35c0-14.41-11.68-26.09-26.09-26.09Z"/>
</svg>