<?xml version="1.0" encoding="UTF-8"?>
<svg id="_Шар_1" data-name="Шар 1" xmlns="http://www.w3.org/2000/svg" viewBox="0 0 800 800">
  <defs>
    <style>
      .cls-1 {
        fill: #bf6952;
      }

      .cls-1, .cls-2, .cls-3 {
        stroke-width: 0px;
      }

      .cls-2 {
        fill: #d79e84;
      }

      .cls-3 {
        fill: #8ccaf7;
      }
    </style>
  </defs>
  <path class="cls-2" d="M799.96,21c-.01-.28-.03-.55-.06-.82-.01-.14-.02-.28-.04-.42-.06-.54-.14-1.08-.24-1.62-.01-.03-.01-.07-.02-.1-.05-.24-.1-.47-.15-.7-.05-.22-.1-.43-.15-.65-.09-.31-.17-.62-.27-.93-.1-.34-.22-.69-.34-1.03-.12-.33-.25-.66-.38-.99-.09-.2-.18-.41-.28-.62-.07-.17-.15-.34-.23-.5-.02-.04-.04-.09-.06-.13-.11-.23-.22-.45-.34-.67-.05-.09-.1-.19-.16-.28-.15-.28-.31-.55-.47-.81-.21-.35-.43-.69-.66-1.02-.07-.11-.14-.21-.22-.31-.13-.2-.27-.38-.42-.57-.12-.17-.25-.34-.39-.51-.16-.2-.33-.4-.5-.59-.07-.09-.15-.18-.24-.27-.28-.32-.57-.62-.87-.92C789.45,2.5,783.89,0,777.78,0H22.22C10,0,0,10,0,22.23v755.55c0,6.11,2.5,11.66,6.53,15.69,1.01,1.02,2.11,1.93,3.29,2.72.3.2.6.39.9.58.31.19.62.37.93.54.32.17.64.33.96.49.15.07.3.14.45.21.55.26,1.11.49,1.68.69.33.12.67.23,1,.33.31.1.63.19.95.27.35.09.71.17,1.07.25,1.46.3,2.95.45,4.46.45h755.56c12.22,0,22.22-10,22.22-22.22V22.23c0-.41-.01-.82-.04-1.23ZM44.44,44.45h333.34v333.33H44.44V44.45ZM44.44,755.56v-333.33h333.34v333.33H44.44ZM755.56,755.56h-333.34v-333.33h333.34v333.33ZM755.56,377.78h-333.34V44.45h333.34v333.33Z"/>
  <path class="cls-1" d="M799.96,21c-.01-.28-.03-.55-.06-.82-.01-.14-.02-.28-.04-.42-.06-.54-.14-1.08-.24-1.62-.01-.03-.01-.07-.02-.1-.05-.24-.1-.47-.15-.7-.05-.22-.1-.43-.15-.65-.09-.31-.17-.62-.27-.93-.1-.34-.22-.69-.34-1.03-.12-.33-.25-.66-.38-.99-.09-.2-.18-.41-.28-.62-.07-.17-.15-.34-.23-.5-.02-.04-.04-.09-.06-.13-.11-.23-.22-.45-.34-.67-.05-.09-.1-.19-.16-.28-.15-.28-.31-.55-.47-.81-.21-.35-.43-.69-.66-1.02-.07-.11-.14-.21-.22-.31-.13-.2-.27-.38-.42-.57-.12-.17-.25-.34-.39-.51-.16-.2-.33-.4-.5-.59-.07-.09-.15-.18-.24-.27-.28-.32-.57-.62-.87-.92l-37.91,37.91v333.33h-333.34s-44.44,44.44-44.44,44.44v333.34H44.44l-37.91,37.91c1.01,1.02,2.11,1.93,3.29,2.72.3.2.6.39.9.58.31.19.62.37.93.54.32.17.64.33.96.49.15.07.3.14.45.21.55.26,1.11.49,1.68.69.33.12.67.23,1,.33.31.1.63.19.95.27.35.09.71.17,1.07.25,1.46.3,2.95.45,4.46.45h755.56c12.22,0,22.22-10,22.22-22.22V22.23c0-.41-.01-.82-.04-1.23ZM755.56,755.56h-333.34v-333.33h333.34v333.33Z"/>
  <polygon class="cls-3" points="755.56 377.78 755.56 422.23 422.22 422.23 422.22 755.56 377.78 755.56 377.78 422.23 44.44 422.23 44.44 377.78 377.78 377.78 377.78 44.45 422.22 44.45 422.22 377.78 755.56 377.78"/>
  <rect class="cls-1" x="377.78" y="44.45" width="44.44" height="711.11"/>
  <rect class="cls-1" x="44.44" y="377.78" width="711.12" height="44.45"/>
</svg>